<svg width="17" height="24" viewBox="-4 -14 25 54" fill="none" xmlns="http://www.w3.org/2000/svg">
<path d="M16.6094 24H0.640625V20.6406L6.375 14.8438C8.07292 13.1042 9.18229 11.901 9.70312 11.2344C10.224 10.5573 10.599 9.93229 10.8281 9.35938C11.0573 8.78646 11.1719 8.19271 11.1719 7.57812C11.1719 6.66146 10.9167 5.97917 10.4062 5.53125C9.90625 5.08333 9.23438 4.85938 8.39062 4.85938C7.50521 4.85938 6.64583 5.0625 5.8125 5.46875C4.97917 5.875 4.10938 6.45312 3.20312 7.20312L0.578125 4.09375C1.70312 3.13542 2.63542 2.45833 3.375 2.0625C4.11458 1.66667 4.92188 1.36458 5.79688 1.15625C6.67188 0.9375 7.65104 0.828125 8.73438 0.828125C10.1615 0.828125 11.4219 1.08854 12.5156 1.60938C13.6094 2.13021 14.4583 2.85938 15.0625 3.79688C15.6667 4.73438 15.9688 5.80729 15.9688 7.01562C15.9688 8.06771 15.7812 9.05729 15.4062 9.98438C15.0417 10.901 14.4688 11.8438 13.6875 12.8125C12.9167 13.7812 11.5521 15.1615 9.59375 16.9531L6.65625 19.7188V19.9375H16.6094V24Z" fill="white"/>
</svg>